<?xml version="1.0" standalone="no"?>
<!DOCTYPE svg PUBLIC "-//W3C//DTD SVG 20010904//EN"
 "http://www.w3.org/TR/2001/REC-SVG-20010904/DTD/svg10.dtd">
<svg version="1.0" xmlns="http://www.w3.org/2000/svg"
 width="1024.000000pt" height="1024.000000pt" viewBox="0 0 1024.000000 1024.000000"
 preserveAspectRatio="xMidYMid meet">
<metadata>
Created by potrace 1.14, written by Peter Selinger 2001-2017
</metadata>
<g transform="translate(0.000000,1024.000000) scale(0.100000,-0.100000)"
fill="#000000" stroke="none">
<path d="M5115 8680 c-32 -12 -40 -26 -147 -242 -177 -359 -368 -790 -368
-829 0 -40 89 -10 373 129 l178 86 202 -101 c205 -104 266 -128 305 -121 21 3
20 6 -27 123 -65 162 -175 400 -320 698 -98 199 -127 250 -147 257 -14 6 -26
10 -27 9 -1 0 -11 -4 -22 -9z m184 -541 c72 -141 131 -259 131 -262 0 -6 -199
105 -256 143 l-42 28 -18 -24 c-15 -18 -255 -164 -271 -164 -15 0 177 400 243
506 l47 76 18 -23 c10 -13 76 -139 148 -280z"/>
<path d="M4560 8224 c-486 -112 -966 -348 -1370 -673 -427 -343 -813 -907
-983 -1436 -112 -348 -152 -607 -151 -985 0 -269 11 -388 55 -619 113 -583
396 -1115 821 -1544 465 -468 1005 -764 1610 -881 l128 -25 63 -63 c225 -225
574 -223 799 3 59 59 73 68 115 74 87 13 264 54 387 91 1036 309 1900 1229
2120 2259 63 298 81 490 73 785 -8 254 -17 344 -58 544 -57 281 -129 487 -264
761 -417 847 -1188 1463 -2123 1695 -64 16 -134 32 -154 35 l-38 7 51 -108
c60 -128 149 -347 228 -563 l57 -153 108 -49 c248 -110 412 -224 611 -424 142
-141 246 -272 303 -377 28 -52 36 -48 -143 -78 -197 -34 -225 -49 -225 -124 0
-39 16 -62 205 -297 118 -147 305 -404 350 -481 l27 -48 -472 0 c-311 0 -469
3 -465 10 3 6 12 10 19 10 28 0 92 59 121 111 l30 54 3 585 c2 383 0 597 -7
620 -17 59 -67 94 -281 201 -335 166 -864 416 -903 427 -22 6 -51 7 -74 2 -21
-5 -177 -73 -348 -150 -170 -78 -383 -175 -473 -216 -353 -161 -399 -191 -422
-272 -13 -50 -13 -1131 1 -1191 13 -58 60 -121 116 -157 l46 -29 -237 -3
c-131 -1 -341 -1 -467 0 l-230 3 72 110 c77 118 314 436 429 575 76 91 86 112
76 164 -7 38 -37 63 -88 71 -18 3 -40 8 -48 10 -8 2 -33 6 -55 9 -120 17 -186
30 -190 36 -6 9 90 163 148 240 72 94 287 303 401 387 122 91 267 175 400 230
57 24 91 44 97 57 4 12 43 116 85 231 42 116 110 287 151 380 92 209 87 195
77 194 -5 0 -56 -12 -114 -25z m-254 -443 l-9 -58 -141 -69 c-193 -95 -294
-156 -438 -265 -223 -170 -459 -416 -609 -636 -52 -76 -81 -108 -118 -131
-111 -69 -120 -85 -213 -391 -50 -166 -52 -174 -34 -187 39 -28 166 -27 240 2
17 6 17 5 6 -17 -14 -27 -208 -309 -283 -411 l-49 -68 -125 0 c-117 0 -124 1
-118 19 3 10 12 54 19 97 64 361 240 766 478 1102 278 390 692 738 1158 972
71 36 221 98 241 100 3 0 1 -26 -5 -59z m1744 33 c134 -54 362 -178 510 -277
518 -345 884 -774 1109 -1299 87 -203 165 -453 185 -593 4 -22 9 -52 12 -67
l6 -28 -119 0 c-143 0 -120 -18 -285 220 -63 91 -132 189 -153 219 l-39 54 50
-9 c84 -15 191 -11 211 8 15 16 13 29 -41 215 -32 109 -67 220 -79 246 -22 53
-82 111 -133 127 -25 9 -47 33 -95 103 -103 150 -215 284 -349 417 -207 206
-413 352 -692 491 l-166 83 -4 58 c-2 32 0 58 3 58 3 0 34 -12 69 -26z m-609
-547 c151 -73 303 -146 339 -163 36 -16 145 -68 243 -116 l178 -87 -78 -39
c-105 -53 -328 -152 -340 -152 -6 0 -228 107 -494 238 -266 130 -500 243 -519
250 l-35 12 205 95 c113 52 210 94 216 95 6 0 135 -60 285 -133z m-583 -261
c147 -74 379 -191 516 -260 l248 -126 -128 -61 c-190 -90 -300 -139 -312 -139
-5 0 -167 77 -358 171 -311 152 -561 273 -664 321 l-35 16 95 44 c52 23 153
71 225 105 71 34 134 62 138 62 5 1 129 -59 275 -133z m-623 -300 l155 -75 0
-118 0 -118 165 -83 c91 -45 167 -82 170 -82 2 0 6 51 7 113 l3 113 205 -100
205 -101 3 -353 2 -353 -332 3 -333 3 -164 77 c-90 43 -180 90 -199 104 -62
48 -62 44 -62 569 0 299 4 475 10 475 5 0 79 -33 165 -74z m-955 -362 c216
-24 207 -15 121 -110 -40 -43 -96 -109 -124 -146 -28 -37 -54 -65 -58 -62 -17
10 -43 114 -43 176 -1 36 -5 64 -10 61 -10 -6 -177 -53 -190 -53 -9 0 -5 21
20 108 l15 54 62 -6 c34 -4 127 -14 207 -22z m4014 -52 c10 -40 16 -75 14 -77
-3 -3 -47 9 -99 25 -52 16 -94 30 -95 30 -1 0 -4 -30 -7 -68 -3 -37 -15 -93
-27 -124 l-21 -57 -79 97 c-44 53 -100 119 -125 147 -49 55 -54 65 -27 65 9 0
51 5 92 10 41 6 111 13 155 16 44 4 82 8 85 11 2 2 29 3 59 1 l56 -3 19 -73z
m613 -1194 c-4 -198 -10 -271 -31 -393 -52 -298 -116 -495 -251 -770 -99 -200
-197 -357 -322 -515 -100 -126 -342 -365 -474 -467 -215 -167 -498 -330 -729
-421 -103 -40 -400 -135 -405 -130 -1 2 -5 30 -9 63 l-6 60 62 18 c327 96 637
253 894 454 348 271 582 553 775 931 131 259 216 510 264 782 25 141 47 407
37 438 -3 9 -528 12 -2579 12 l-2576 0 6 -132 c4 -73 9 -144 11 -158 3 -14 17
-92 31 -175 105 -608 439 -1188 930 -1613 198 -172 508 -361 750 -458 39 -15
124 -44 190 -64 l120 -36 -4 -44 c-6 -81 -4 -81 -101 -55 -368 96 -768 304
-1090 566 -110 89 -310 288 -405 404 -83 100 -259 363 -317 475 -134 254 -233
552 -272 820 -21 140 -25 189 -32 438 l-6 212 2773 0 2772 0 -6 -242z m-4511
-240 c33 -35 82 -89 109 -120 26 -32 50 -58 54 -58 3 0 28 28 56 63 27 34 74
88 104 120 l54 57 129 0 c70 0 128 -3 128 -6 0 -3 -12 -21 -26 -39 l-26 -35 3
-274 c4 -267 5 -275 27 -305 l23 -31 -148 0 c-132 0 -145 2 -127 15 39 27 45
61 42 252 l-3 182 -80 -76 c-44 -43 -99 -95 -122 -117 l-42 -40 -121 119 -120
119 0 -199 0 -199 27 -28 27 -28 -148 0 -148 0 26 31 26 31 0 279 0 280 -25
25 c-14 14 -25 29 -25 34 0 6 55 10 133 10 l133 0 60 -62z m1398 -199 c117
-351 125 -370 159 -401 l29 -28 -151 0 c-97 0 -151 4 -151 10 0 6 6 21 14 33
8 13 12 37 9 60 l-5 38 -151 -3 -151 -3 -9 -38 c-7 -29 -5 -43 7 -62 9 -13 16
-27 16 -30 0 -3 -71 -5 -157 -5 -146 0 -156 1 -135 16 34 23 51 64 156 369 53
154 99 286 101 293 3 9 46 12 168 12 l163 0 88 -261z m516 247 c0 -8 -11 -23
-25 -34 l-25 -20 0 -226 0 -226 163 0 162 0 0 -59 c0 -49 4 -64 24 -85 l24
-26 -297 0 -297 0 20 26 c20 26 21 39 21 309 0 273 -1 282 -21 301 -11 10 -25
27 -30 36 -9 17 0 18 136 18 119 0 145 -3 145 -14z m690 6 c0 -5 -13 -21 -30
-37 -30 -28 -30 -30 -30 -137 0 -59 4 -108 8 -108 4 0 61 65 127 145 l120 144
140 0 140 0 -41 -37 c-53 -47 -210 -216 -231 -248 -15 -24 -13 -28 88 -181 57
-87 117 -172 133 -190 l28 -33 -158 0 c-123 0 -155 3 -146 12 7 7 12 22 12 33
0 23 -111 208 -126 211 -5 1 -28 -20 -51 -47 -37 -43 -43 -56 -43 -95 0 -39 5
-51 34 -80 l34 -34 -151 0 c-122 1 -149 3 -136 13 36 28 39 51 39 331 0 163
-4 277 -10 281 -5 3 -19 19 -30 35 l-21 30 150 0 c83 0 151 -4 151 -8z m1066
-3 c3 -6 41 -115 84 -242 107 -318 136 -393 167 -417 l26 -20 -152 0 c-83 0
-151 3 -151 7 0 4 9 16 20 28 17 18 19 28 12 61 l-8 39 -146 3 c-144 2 -146 2
-152 -20 -10 -39 -7 -76 9 -91 8 -8 11 -17 8 -21 -4 -3 -72 -6 -152 -6 -117 1
-143 3 -130 13 36 28 68 104 194 467 32 91 61 175 66 188 8 21 12 22 153 22
94 0 147 -4 152 -11z m64 -948 c0 -12 -27 -28 -181 -110 l-136 -71 -1672 0
-1671 0 -103 51 c-137 68 -218 119 -212 130 8 12 3975 12 3975 0z m-2612 -361
c36 -22 39 -35 16 -61 -16 -18 -18 -18 -42 1 -13 11 -33 20 -44 20 -28 0 -76
-27 -88 -49 -14 -26 -12 -82 3 -102 39 -51 137 -53 137 -3 0 17 -6 24 -20 24
-15 0 -20 7 -20 25 0 22 4 25 34 25 19 0 41 3 50 6 14 5 16 -5 16 -74 0 -51
-4 -84 -12 -88 -6 -4 -43 -9 -82 -12 -62 -3 -75 -1 -105 20 -49 33 -73 70 -78
119 -11 116 136 209 235 149z m352 2 c104 -52 109 -209 8 -273 -26 -16 -45
-19 -90 -16 -99 6 -158 75 -145 170 7 53 33 87 87 115 53 27 93 28 140 4z
m405 -16 c47 -36 72 -104 56 -155 -23 -77 -80 -121 -158 -121 -90 0 -162 85
-149 175 8 51 45 101 91 122 43 19 120 10 160 -21z m675 12 c25 -16 25 -30 1
-52 -17 -16 -20 -16 -48 0 -37 21 -66 13 -61 -18 2 -17 14 -26 49 -35 62 -18
89 -45 89 -89 0 -53 -44 -94 -102 -94 -42 0 -109 27 -115 46 -2 6 3 19 11 29
14 19 15 19 56 -4 34 -19 46 -21 66 -12 46 21 18 61 -52 76 -37 7 -60 29 -69
67 -10 38 2 67 38 89 35 22 99 20 137 -3z m-331 -6 c43 -23 71 -74 71 -130 0
-54 -20 -94 -62 -124 -28 -19 -45 -23 -118 -23 l-85 0 -3 85 c-2 47 0 113 3
148 l7 62 76 0 c56 0 87 -5 111 -18z m-1624 -93 c22 -6 60 -18 85 -27 l45 -17
-45 -7 c-25 -3 -79 -7 -120 -8 -41 -1 -86 -5 -99 -9 -23 -6 -22 -8 30 -52 231
-194 473 -295 844 -355 143 -23 579 -28 745 -8 375 44 717 180 929 368 l49 44
-45 6 c-25 3 -93 6 -151 6 -66 0 -102 4 -96 9 5 5 44 21 86 35 71 24 89 26
267 26 213 0 211 1 163 -66 -120 -164 -387 -346 -690 -468 -138 -56 -206 -78
-372 -120 -111 -28 -138 -32 -150 -21 -33 28 -146 77 -209 91 -88 18 -215 18
-282 -2 -30 -9 -89 -34 -131 -57 l-77 -40 -128 32 c-197 51 -325 96 -478 171
-173 83 -356 205 -456 303 -74 71 -139 151 -139 169 0 12 378 10 425 -3z
m1236 -755 c111 -33 199 -108 246 -210 89 -195 -24 -429 -241 -496 -110 -33
-211 -17 -315 53 -151 101 -202 293 -124 462 76 162 260 242 434 191z"/>
<path d="M4512 4688 c-19 -61 -36 -116 -38 -122 -3 -7 20 -11 66 -11 45 0 70
4 70 11 0 6 -13 54 -29 105 -16 52 -30 102 -32 112 -2 9 -19 -33 -37 -95z"/>
<path d="M6900 4753 c0 -10 -12 -56 -25 -102 -14 -47 -24 -85 -22 -87 1 -1 30
-4 65 -6 54 -4 63 -2 59 11 -2 9 -17 58 -33 108 -27 87 -44 115 -44 76z"/>
<path d="M4770 3553 c-54 -20 -81 -83 -56 -132 20 -37 44 -51 91 -51 93 0 119
131 35 175 -30 16 -45 17 -70 8z"/>
<path d="M5143 3545 c-90 -39 -63 -175 34 -175 48 0 78 21 93 64 25 76 -52
144 -127 111z"/>
<path d="M5480 3460 l0 -90 40 0 c56 0 88 18 100 55 23 70 -20 125 -96 125
l-44 0 0 -90z"/>
<path d="M5071 2609 c-55 -16 -110 -59 -139 -108 -22 -38 -27 -58 -27 -111 1
-145 113 -244 256 -227 134 16 227 140 200 268 -30 137 -158 215 -290 178z
m108 -173 c21 -25 9 -79 -20 -95 -24 -13 -29 -13 -53 2 -32 21 -37 80 -8 96
25 15 68 13 81 -3z"/>
</g>
</svg>
